<?xml version="1.0" encoding="UTF-8"?>
<svg id="Calque_1" xmlns="http://www.w3.org/2000/svg" version="1.1" viewBox="0 0 160 160">
  <!-- Generator: Adobe Illustrator 29.6.1, SVG Export Plug-In . SVG Version: 2.1.1 Build 9)  -->
  <defs>
    <style>
      .st0 {
        fill: none;
        stroke: #fff;
        stroke-linecap: round;
        stroke-linejoin: round;
        stroke-width: 8px;
      }
    </style>
  </defs>
  <path class="st0" d="M103.01,141.67c.02-3.89.05-17.39.05-22.74,0-7.73-2.64-12.78-5.6-15.34,18.38-2.05,37.67-9.05,37.67-40.89,0-9.05-3.19-16.45-8.48-22.24.85-2.1,3.68-10.53-.82-21.93,0,0-6.91-2.23-22.67,8.5-6.59-1.84-13.64-2.76-20.65-2.79-7.01.04-14.06.95-20.65,2.79-15.75-10.73-22.67-8.5-22.67-8.5-4.5,11.41-1.67,19.84-.82,21.93-5.29,5.79-8.48,13.19-8.48,22.24,0,31.84,19.29,38.84,37.67,40.89-2.96,2.56-5.6,7.62-5.6,15.34,0,5.35.02,18.85.05,22.74M61.95,123.33"/>
  <polyline class="st0" points="20.52 129.67 28.02 129.67 34.02 116.17 44.52 141.67 50.52 129.67 58.02 129.67"/>
</svg>