<?xml version="1.0" encoding="UTF-8"?>
<svg id="Calque_1" xmlns="http://www.w3.org/2000/svg" version="1.1" viewBox="0 0 160 160">
  <!-- Generator: Adobe Illustrator 29.6.1, SVG Export Plug-In . SVG Version: 2.1.1 Build 9)  -->
  <defs>
    <style>
      .st0 {
        fill-rule: evenodd;
      }
    </style>
  </defs>
  <path class="st0" d="M62.1,132.49h-3.88l-5.31,10.62c-.42.85-1.29,1.38-2.24,1.38-.03,0-.06,0-.09,0-.98-.04-1.85-.64-2.22-1.55l-8.28-20.1-3.63,8.16c-.4.9-1.3,1.49-2.28,1.49h-4.96c-.59,0-.9.72-.49,1.14,7.88,8.2,17.62,14.52,28.51,18.24,3.59.69,4.92-1.6,4.92-3.55,0-1.75-.06-7.57-.1-13.74.02-.7.03-1.39.05-2.09Z"/>
  <path class="st0" d="M80,8C40.24,8,8,41.05,8,81.82c0,16.76,5.45,32.21,14.63,44.6.5.68,1.3,1.07,2.14,1.07h7.79l5.34-12.02c.41-.91,1.33-1.48,2.32-1.48,1,.01,1.9.62,2.28,1.55l8.41,20.42,3.54-7.09c.42-.85,1.29-1.38,2.24-1.38h5.54l.07-3.17c.65-4.77,2.51-8.03,4.57-9.87-15.99-1.87-32.8-8.2-32.8-36.49,0-8.06,2.82-14.64,7.42-19.81-.74-1.86-3.21-9.37.7-19.54,0,0,6.05-1.98,19.81,7.57,5.75-1.63,11.9-2.46,18.02-2.49,6.12.03,12.28.85,18.04,2.49,13.74-9.55,19.78-7.57,19.78-7.57,3.92,10.17,1.45,17.68.71,19.54,4.62,5.17,7.42,11.75,7.42,19.81,0,28.35-16.85,34.6-32.88,36.43,2.58,2.29,4.89,6.79,4.89,13.67,0,9.88-.09,17.83-.09,20.26,0,1.97,1.3,4.27,4.95,3.54,28.59-9.77,49.2-37.43,49.2-70.04,0-40.77-32.23-73.82-72-73.82Z"/>
</svg>